<svg xmlns="http://www.w3.org/2000/svg" width="100" height="100" viewBox="0 0 100 100">
  <g id="Group_149" data-name="Group 149" transform="translate(-1489 -1085)">
    <path id="Path_38" data-name="Path 38" d="M50,0A50,50,0,1,1,13.19,16.161,50,50,0,0,1,50,0Z" transform="translate(1489 1085)" fill="#fff"/>
    <g id="woman" transform="translate(1495.881 1099)">
      <g id="Group_41" data-name="Group 41" transform="translate(40.363 41.36)">
        <g id="Group_40" data-name="Group 40">
          <path id="Path_31" data-name="Path 31" d="M238.728,293.056a1.412,1.412,0,0,0-1.881.668l-.234.492a1.412,1.412,0,1,0,2.549,1.214l.234-.492A1.412,1.412,0,0,0,238.728,293.056Z" transform="translate(-236.475 -292.918)"/>
        </g>
      </g>
      <g id="Group_43" data-name="Group 43" transform="translate(18.145 32.903)">
        <g id="Group_42" data-name="Group 42">
          <path id="Path_32" data-name="Path 32" d="M87.773,233.438a1.412,1.412,0,0,0-2,0,3,3,0,0,1-4.245,0,1.412,1.412,0,1,0-2,2,5.831,5.831,0,0,0,8.237,0A1.412,1.412,0,0,0,87.773,233.438Z" transform="translate(-79.122 -233.025)"/>
        </g>
      </g>
      <g id="Group_45" data-name="Group 45" transform="translate(8.12 0)">
        <g id="Group_44" data-name="Group 44">
          <path id="Path_33" data-name="Path 33" d="M74.378,3.751A12.81,12.81,0,0,0,56.331,3.7,33.971,33.971,0,0,0,51.373,1.72,36.426,36.426,0,0,0,40.561,0C32.9.008,26.224,3.221,23.126,8.391A13.024,13.024,0,0,0,22.1,10.508c-1.459,1.39-8.045,8.2-8.045,17.846,0,6.428-3.092,9.783-4.934,11.212a2.6,2.6,0,0,0,.319,4.314c.694.39,1.475.765,2.23,1.127.668.32,1.617.776,2.079,1.072v2.514a2.643,2.643,0,0,1-.2,1l-.35.862A3.642,3.642,0,0,0,13.666,54v.31a3.075,3.075,0,0,0,1.075,2.339v1.657a6.448,6.448,0,0,0,6.441,6.441H25.35a1.412,1.412,0,0,0,0-2.823H21.182A3.623,3.623,0,0,1,17.563,58.3V55.87a1.412,1.412,0,0,0-.858-1.3l-.061-.026a.257.257,0,0,1-.156-.236v-.8a1.412,1.412,0,0,0-.3-.873l-.249-.317a.813.813,0,0,1-.114-.807l.35-.862a5.453,5.453,0,0,0,.4-2.061V45.587c0-1.36-1.386-2.025-3.681-3.126-.6-.289-1.223-.587-1.771-.88,2.27-1.853,5.758-5.894,5.758-13.228a21.831,21.831,0,0,1,4.411-12.567,17.926,17.926,0,0,0,2.233,7.607c3.623,6.776,9.931,9.616,15,11.9,4.823,2.171,7.553,3.538,7.575,6.379.016,2.086-.464,3.621-1.426,4.562A3.934,3.934,0,0,1,42.08,47.29a1.387,1.387,0,0,0-1.206.55,1.41,1.41,0,0,0-.2,1.322,20.434,20.434,0,0,0,3.331,5.718,13.587,13.587,0,0,0,10.5,5.316L58.3,71.316A1.411,1.411,0,0,0,60.97,70.4L57.235,59.453a29.076,29.076,0,0,0,14.353-17,34.235,34.235,0,0,0,.382-18.716A12.8,12.8,0,0,0,74.378,3.751ZM68.9,41.593A26.432,26.432,0,0,1,55.138,57.364a10.643,10.643,0,0,1-8.905-4.222,17.994,17.994,0,0,1-2.194-3.348A6.475,6.475,0,0,0,46.6,48.3c1.563-1.5,2.345-3.734,2.323-6.648-.037-4.789-4.507-6.8-9.239-8.931-4.922-2.216-10.5-4.727-13.67-10.654-1.969-3.682-2.432-7.184-1.383-10.253l.013-.035a10.3,10.3,0,0,1,.9-1.932C28.141,5.514,33.9,2.826,40.579,2.826h.041a33.811,33.811,0,0,1,9.909,1.589c7.208,2.258,12.517,6.465,15.781,12.5A32.275,32.275,0,0,1,68.9,41.593Zm2.226-20.678a35.4,35.4,0,0,0-2.333-5.339A27.747,27.747,0,0,0,58.93,5.153a9.972,9.972,0,1,1,12.2,15.762Z" transform="translate(-8.12 0)"/>
        </g>
      </g>
      <g id="Group_47" data-name="Group 47" transform="translate(23.313 44.902)">
        <g id="Group_46" data-name="Group 46">
          <path id="Path_34" data-name="Path 34" d="M136.741,339.227l-4.422-7.66-.15-5.23a8.57,8.57,0,0,0-7.881-8.307,7.831,7.831,0,0,0-7.675,4.431l-.07.147a8.611,8.611,0,0,0,3.069,10.861l4.4,2.87,4.809,8.33a1.412,1.412,0,0,0,2.445-1.412l-4.273-7.4,1.7-.983,1.7-.983,3.9,6.746a1.411,1.411,0,0,0,2.445-1.411Zm-11.628-5.542-3.959-2.581a5.778,5.778,0,0,1-2.059-7.288l.07-.147a5,5,0,0,1,4.5-2.842q.2,0,.4.016a5.75,5.75,0,0,1,5.288,5.573l.136,4.745Z" transform="translate(-115.724 -318.005)"/>
        </g>
      </g>
      <g id="Group_49" data-name="Group 49" transform="translate(44.036 69.47)">
        <g id="Group_48" data-name="Group 48">
          <path id="Path_35" data-name="Path 35" d="M264.9,492.42a1.411,1.411,0,1,0,.414,1A1.422,1.422,0,0,0,264.9,492.42Z" transform="translate(-262.49 -492.006)"/>
        </g>
      </g>
      <g id="Group_51" data-name="Group 51" transform="translate(27.547 7.418)">
        <g id="Group_50" data-name="Group 50">
          <path id="Path_36" data-name="Path 36" d="M153.039,53.391a1.412,1.412,0,0,0-1.853-.743,8.214,8.214,0,0,0-4.217,12.188,1.412,1.412,0,0,0,2.49-1.331,5.966,5.966,0,0,1-.665-4.87,6.047,6.047,0,0,1,3.5-3.392A1.411,1.411,0,0,0,153.039,53.391Z" transform="translate(-145.708 -52.534)"/>
        </g>
      </g>
      <g id="Group_53" data-name="Group 53" transform="translate(36.839 6.496)">
        <g id="Group_52" data-name="Group 52">
          <path id="Path_37" data-name="Path 37" d="M213,46h-.079a1.412,1.412,0,0,0,.008,2.823H213A1.412,1.412,0,0,0,213,46Z" transform="translate(-211.516 -46.003)"/>
        </g>
      </g>
    </g>
  </g>
</svg>
