<svg xmlns="http://www.w3.org/2000/svg" width="254" height="73" viewBox="0 0 254 73">
  <g id="Group_148" data-name="Group 148" transform="translate(-877 -6793)">
    <g id="Group_124" data-name="Group 124" transform="translate(723 223)">
      <path id="snapchat_3_" data-name="snapchat(3)" d="M35,0A35,35,0,1,0,70,35,35,35,0,0,0,35,0ZM55.961,46.3c-.252.587-1.385,1.422-5.349,2.034-.325.05-.45.472-.644,1.357-.07.322-.142.639-.239.971a.529.529,0,0,1-.567.424h-.049a4.971,4.971,0,0,1-.887-.112,11.877,11.877,0,0,0-2.381-.252,10.579,10.579,0,0,0-1.719.144,8.237,8.237,0,0,0-3.268,1.667c-1.554,1.1-3.157,2.233-5.657,2.233-.109,0-.215,0-.323-.009-.068.006-.139.009-.21.009-2.5,0-4.1-1.133-5.654-2.231a8.258,8.258,0,0,0-3.273-1.669,10.564,10.564,0,0,0-1.718-.144,11.774,11.774,0,0,0-2.382.269,5.212,5.212,0,0,1-.888.128.558.558,0,0,1-.616-.441c-.1-.337-.17-.662-.239-.978-.177-.811-.3-1.31-.642-1.362-3.963-.612-5.1-1.447-5.351-2.04a.762.762,0,0,1-.061-.253.446.446,0,0,1,.373-.466c6.092-1,8.824-7.231,8.938-7.495,0-.006.006-.014.01-.021a2.325,2.325,0,0,0,.218-1.95c-.418-.985-1.782-1.418-2.685-1.7-.221-.07-.43-.136-.6-.2-1.8-.712-1.951-1.442-1.88-1.815a1.7,1.7,0,0,1,1.655-1.078,1.157,1.157,0,0,1,.492.1,5.257,5.257,0,0,0,2.171.572,1.789,1.789,0,0,0,1.3-.414c-.023-.412-.05-.843-.078-1.288-.182-2.88-.407-6.459.505-8.5a11.022,11.022,0,0,1,10.233-6.6l.75-.007h.1a11.04,11.04,0,0,1,10.251,6.6c.912,2.044.686,5.626.5,8.5l-.008.126c-.025.4-.05.79-.07,1.163a1.736,1.736,0,0,0,1.182.411h0a5.446,5.446,0,0,0,2.047-.568,1.531,1.531,0,0,1,.635-.126,1.952,1.952,0,0,1,.731.139l.014.006a1.343,1.343,0,0,1,1.021,1.094c.008.422-.315,1.056-1.894,1.681-.164.065-.373.131-.6.2-.9.286-2.267.72-2.685,1.7a2.32,2.32,0,0,0,.218,1.949l.01.022c.113.264,2.842,6.49,8.938,7.494a.447.447,0,0,1,.373.465.748.748,0,0,1-.062.255Zm0,0" transform="translate(246 6573)" fill="#e3b344"/>
      <g id="Group_123" data-name="Group 123" transform="translate(-733 -771)">
        <circle id="Ellipse_24" data-name="Ellipse 24" cx="35" cy="35" r="35" transform="translate(1071 7344)" fill="#e3b344"/>
        <g id="Group_121" data-name="Group 121" transform="translate(1086.661 7365.23)">
          <path id="Path_275" data-name="Path 275" d="M65.88,37.951a16.692,16.692,0,0,1-4.805,1.316,8.389,8.389,0,0,0,3.679-4.628,16.748,16.748,0,0,1-5.313,2.03A8.373,8.373,0,0,0,45.185,44.3a23.748,23.748,0,0,1-17.244-8.742,8.375,8.375,0,0,0,2.589,11.17,8.307,8.307,0,0,1-3.789-1.048c0,.036,0,.071,0,.106a8.371,8.371,0,0,0,6.711,8.2,8.4,8.4,0,0,1-3.778.145,8.375,8.375,0,0,0,7.815,5.81A16.888,16.888,0,0,1,25.1,63.408a23.664,23.664,0,0,0,12.823,3.759c15.388,0,23.8-12.748,23.8-23.8,0-.362-.008-.724-.024-1.082a16.965,16.965,0,0,0,4.175-4.33Z" transform="translate(-25.103 -34.028)" fill="#373737"/>
        </g>
      </g>
      <g id="instagram_4_" data-name="instagram(4)" transform="translate(154 6570)">
        <path id="Path_291" data-name="Path 291" d="M220.4,213.7a6.7,6.7,0,1,1-6.7-6.7A6.7,6.7,0,0,1,220.4,213.7Zm0,0" transform="translate(-178.699 -178.699)" fill="#e3b344"/>
        <path id="Path_292" data-name="Path 292" d="M167.629,140.112a6.655,6.655,0,0,0-3.814-3.814,11.119,11.119,0,0,0-3.731-.692c-2.12-.1-2.755-.117-8.121-.117s-6,.02-8.121.117a11.127,11.127,0,0,0-3.731.692,6.658,6.658,0,0,0-3.815,3.814,11.123,11.123,0,0,0-.692,3.732c-.1,2.119-.117,2.755-.117,8.121s.021,6,.117,8.121a11.12,11.12,0,0,0,.692,3.731,6.655,6.655,0,0,0,3.814,3.814,11.105,11.105,0,0,0,3.732.692c2.119.1,2.754.117,8.121.117s6-.02,8.121-.117a11.106,11.106,0,0,0,3.732-.692,6.655,6.655,0,0,0,3.814-3.814,11.13,11.13,0,0,0,.692-3.731c.1-2.12.117-2.755.117-8.121s-.02-6-.117-8.121A11.106,11.106,0,0,0,167.629,140.112Zm-15.667,22.173a10.32,10.32,0,1,1,10.32-10.32A10.32,10.32,0,0,1,151.961,162.285Zm10.728-18.637a2.412,2.412,0,1,1,2.412-2.412A2.412,2.412,0,0,1,162.69,143.648Zm0,0" transform="translate(-116.961 -116.965)" fill="#e3b344"/>
        <path id="Path_293" data-name="Path 293" d="M35,0A35,35,0,1,0,70,35,35,35,0,0,0,35,0ZM54.976,43.286a14.745,14.745,0,0,1-.934,4.879,10.276,10.276,0,0,1-5.878,5.878,14.755,14.755,0,0,1-4.878.934c-2.143.1-2.828.121-8.286.121s-6.143-.023-8.286-.121a14.755,14.755,0,0,1-4.878-.934,10.276,10.276,0,0,1-5.878-5.878,14.742,14.742,0,0,1-.934-4.878c-.1-2.144-.122-2.828-.122-8.286s.023-6.143.121-8.286a14.747,14.747,0,0,1,.934-4.879,10.283,10.283,0,0,1,5.878-5.878,14.759,14.759,0,0,1,4.879-.934c2.143-.1,2.828-.121,8.286-.121s6.143.023,8.286.122a14.762,14.762,0,0,1,4.879.933,10.279,10.279,0,0,1,5.878,5.878,14.744,14.744,0,0,1,.935,4.879c.1,2.143.121,2.828.121,8.286S55.075,41.143,54.976,43.286Zm0,0" fill="#e3b344"/>
      </g>
    </g>
  </g>
</svg>
