<svg xmlns="http://www.w3.org/2000/svg" width="100" height="100" viewBox="0 0 100 100">
  <g id="Group_151" data-name="Group 151" transform="translate(-670 -1082)">
    <path id="Path_38" data-name="Path 38" d="M50,0A50,50,0,1,1,13.19,16.161,50,50,0,0,1,50,0Z" transform="translate(670 1082)" fill="#fff"/>
    <g id="pen" transform="translate(685 1099)">
      <g id="Group_29" data-name="Group 29" transform="translate(57.695 13.672)">
        <g id="Group_28" data-name="Group 28">
          <path id="Path_25" data-name="Path 25" d="M423.367,100a1.367,1.367,0,1,0,1.367,1.367A1.368,1.368,0,0,0,423.367,100Z" transform="translate(-422 -100)"/>
        </g>
      </g>
      <g id="Group_31" data-name="Group 31" transform="translate(9.57 13.672)">
        <g id="Group_30" data-name="Group 30">
          <path id="Path_26" data-name="Path 26" d="M71.367,100a1.367,1.367,0,1,0,1.367,1.367A1.368,1.368,0,0,0,71.367,100Z" transform="translate(-70 -100)"/>
        </g>
      </g>
      <g id="Group_33" data-name="Group 33" transform="translate(60.752 18.205)">
        <g id="Group_32" data-name="Group 32">
          <path id="Path_27" data-name="Path 27" d="M452.238,145.031H450.6a31.055,31.055,0,0,0-3.684-11.171,1.367,1.367,0,1,0-2.389,1.33,28.336,28.336,0,0,1,3.316,9.84h-1.077A1.367,1.367,0,0,0,445.4,146.4v5.469a1.367,1.367,0,0,0,1.367,1.367h5.469a1.367,1.367,0,0,0,1.367-1.367V146.4A1.367,1.367,0,0,0,452.238,145.031Zm-1.367,5.469h-2.734v-2.734h2.734Z" transform="translate(-444.357 -133.158)"/>
        </g>
      </g>
      <g id="Group_35" data-name="Group 35" transform="translate(19.961 13.672)">
        <g id="Group_34" data-name="Group 34">
          <path id="Path_28" data-name="Path 28" d="M176.076,126.335c0-.021,0-.042,0-.064s-.006-.058-.011-.086,0-.035-.008-.053c-.006-.034-.014-.066-.023-.1,0-.012-.006-.025-.01-.037-.012-.041-.026-.081-.042-.12l0-.013a1.351,1.351,0,0,0-.064-.133l-13.672-25.019a1.367,1.367,0,0,0-2.4,0l-13.672,25.019a1.352,1.352,0,0,0-.064.133l0,.013c-.016.039-.03.079-.042.12,0,.012-.006.025-.01.037-.009.033-.017.065-.023.1,0,.017-.005.035-.008.052s-.008.057-.011.086,0,.042,0,.064,0,.034,0,.052,0,.018,0,.027,0,.043,0,.064,0,.054.007.081.005.038.009.056.011.059.018.088.008.033.013.049c.009.031.018.062.029.092,0,.009,0,.017.008.026l4.931,13.066a4.1,4.1,0,0,0,.45,7.544v7.481a1.367,1.367,0,0,0,1.367,1.367h16.406a1.367,1.367,0,0,0,1.367-1.367v-7.479a4.1,4.1,0,0,0,.449-7.545l4.931-13.068c0-.009.005-.017.008-.026.011-.03.021-.061.029-.092,0-.016.009-.032.013-.049s.013-.058.018-.088.006-.038.009-.056.006-.054.007-.081,0-.043,0-.064,0-.018,0-.027S176.076,126.352,176.076,126.335Zm-15.036-1.315a1.367,1.367,0,1,1-1.367,1.367A1.369,1.369,0,0,1,161.039,125.02Zm6.836,28.574H154.2v-5.879h13.672Zm2.334-9.014a1.358,1.358,0,0,1-.966.4H152.836a1.367,1.367,0,0,1,0-2.734h16.411a1.366,1.366,0,0,1,.962,2.333Zm-1.912-5.068H153.781l-4.437-11.758h3.492a1.367,1.367,0,1,0,0-2.734h-3.164l10-18.3v15.8a4.1,4.1,0,1,0,2.734,0v-15.8l10,18.3h-3.164a1.367,1.367,0,0,0,0,2.734h3.492Z" transform="translate(-146 -100)"/>
        </g>
      </g>
      <g id="Group_37" data-name="Group 37" transform="translate(0 18.205)">
        <g id="Group_36" data-name="Group 36">
          <path id="Path_29" data-name="Path 29" d="M8.546,133.33a1.367,1.367,0,0,0-1.86.529A31.055,31.055,0,0,0,3,145.03H1.367A1.367,1.367,0,0,0,0,146.4v5.469a1.367,1.367,0,0,0,1.367,1.367H6.836A1.367,1.367,0,0,0,8.2,151.866V146.4a1.367,1.367,0,0,0-1.367-1.367H5.759a28.338,28.338,0,0,1,3.316-9.84A1.367,1.367,0,0,0,8.546,133.33ZM5.469,150.5H2.734v-2.734H5.469Z" transform="translate(0 -133.157)"/>
        </g>
      </g>
      <g id="Group_39" data-name="Group 39">
        <g id="Group_38" data-name="Group 38">
          <path id="Path_30" data-name="Path 30" d="M65.9,0a4.108,4.108,0,0,0-3.866,2.734H39.1V1.367A1.367,1.367,0,0,0,37.734,0H32.266A1.367,1.367,0,0,0,30.9,1.367V2.734H7.968a4.1,4.1,0,1,0,0,2.734H21.713a30.269,30.269,0,0,0-7.791,4.66,1.367,1.367,0,1,0,1.762,2.091A30.827,30.827,0,0,1,30.9,5.758V6.836A1.367,1.367,0,0,0,32.266,8.2h5.469A1.367,1.367,0,0,0,39.1,6.836V5.758a30.828,30.828,0,0,1,15.215,6.461,1.367,1.367,0,0,0,1.762-2.091,30.269,30.269,0,0,0-7.791-4.66H62.032A4.1,4.1,0,1,0,65.9,0ZM4.1,5.469A1.367,1.367,0,1,1,5.469,4.1,1.369,1.369,0,0,1,4.1,5.469ZM36.367,4.1V5.469H33.633V2.734h2.734ZM65.9,5.469A1.367,1.367,0,1,1,67.266,4.1,1.369,1.369,0,0,1,65.9,5.469Z"/>
        </g>
      </g>
    </g>
  </g>
</svg>
