<svg xmlns="http://www.w3.org/2000/svg" width="100" height="100" viewBox="0 0 100 100">
  <g id="Group_152" data-name="Group 152" transform="translate(-274 -1085)">
    <path id="Path_38" data-name="Path 38" d="M50,0A50,50,0,1,1,13.19,16.161,50,50,0,0,1,50,0Z" transform="translate(274 1085)" fill="#fff"/>
    <path id="draw" d="M69.233,8.878a1.438,1.438,0,0,0-1.368-.07L56.622,14.1a12.214,12.214,0,0,0-6.971,10.082l-.29,3.592-5.825,9.676V33.324c0-.014-.007-.025-.007-.039a1.436,1.436,0,0,0-.069-.419l-2.711-8.131,5.534-11.065a1.451,1.451,0,0,0-.145-1.519l-8.7-11.6a1.5,1.5,0,0,0-2.32,0l-8.7,11.6a1.452,1.452,0,0,0-.138,1.519l5.534,11.065L29.1,32.865a1.436,1.436,0,0,0-.069.419v5.827L20,25.4c-.011-.016-.029-.025-.039-.039a1.468,1.468,0,0,0-.312-.316c-.028-.02-.052-.043-.082-.062s-.033-.029-.052-.039L14.2,21.866l-2.207-3.35L8.8,13.673a1.45,1.45,0,0,0-1.691-.57L1.465,15.082a1.45,1.45,0,0,0-.881,1.852,1.414,1.414,0,0,0,.156.313L4.73,23.3l2.2,3.348.725,6.1a.532.532,0,0,0,.015.058c.006.031.014.062.023.091a1.435,1.435,0,0,0,.171.435c.01.015.01.033.021.048S29.451,66.071,29.555,66.16a7.181,7.181,0,0,0,6.713,4.626,7.347,7.347,0,0,0,1.756-.214,7.205,7.205,0,0,0,4.465-3.3l19.288-32,3.045-1.927a12.3,12.3,0,0,0,3.925-4.013,12.179,12.179,0,0,0,1.74-6.859l-.565-12.417a1.45,1.45,0,0,0-.689-1.184Zm-10.5,25.843-2.244,3.726-7.453-4.5,2.247-3.726ZM31.933,56.7V34.774h8.7v7.492Zm2.5-30.625h3.71l1.933,5.8H32.5Zm1.855-10.152a1.45,1.45,0,1,1,1.451-1.45A1.45,1.45,0,0,1,36.284,15.921Zm0-12.085,7,9.337-5,10h-.554V18.554a4.35,4.35,0,1,0-2.9,0v4.617H34.28l-5-10ZM16.029,26.276l-.427.281-5.341,3.518-.491-4.11a1.448,1.448,0,0,0-.23-.625L7.945,22.919l2.422-1.6,1.6,2.422a1.457,1.457,0,0,0,.484.457ZM7,16.21,8.77,18.9l-2.422,1.6L4.173,17.2ZM14.741,30.6,18.367,28.2l10.666,16.18V60.2L11.108,32.991ZM40.01,65.769a4.351,4.351,0,1,1-7.476-4.452l.026-.043L43.51,43.112h.025v-.039l4-6.635,3.726,2.251,3.731,2.242ZM66.27,27.834a9.368,9.368,0,0,1-2.991,3.057L60.7,32.523,56.5,29.991l-4.206-2.532.239-3.045a9.316,9.316,0,0,1,5.315-7.687l9.281-4.37.185,4.042a1.435,1.435,0,0,0-.435.019l-3.512.871a8.828,8.828,0,0,0-6.526,6.671,1.449,1.449,0,0,0,1.1,1.731,1.4,1.4,0,0,0,.318.037,1.451,1.451,0,0,0,1.414-1.134,5.946,5.946,0,0,1,4.39-4.487l3.388-.84L67.6,22.6a9.3,9.3,0,0,1-1.327,5.233Zm0,0" transform="translate(288.5 1097.999)"/>
  </g>
</svg>
