<svg xmlns="http://www.w3.org/2000/svg" width="330.139" height="373.745" viewBox="0 0 330.139 373.745">
  <g id="Group_148" data-name="Group 148" transform="translate(16.041 -446.534)">
    <path id="Path_317" data-name="Path 317" d="M163.292,684.451a71.708,71.708,0,0,0,.008-101.4l-48.492-48.492-8.92,8.573a4.029,4.029,0,0,1-6.821-2.994l.411-20.477a3.555,3.555,0,0,1,.049-.383L61.313,481.064l-.425.425a71.7,71.7,0,0,0,0,101.394L162.874,684.87" transform="translate(15.562 135.056)" fill="none" stroke="#fff" stroke-miterlimit="10" stroke-width="1"/>
    <path id="Path_318" data-name="Path 318" d="M149.691,392.684a71.719,71.719,0,0,0-9.557,89.575l17.453.348a4.041,4.041,0,0,1,2.709,6.953l-7.714,7.407,99.1,99.1.42-.419a71.709,71.709,0,0,0,0-101.407L150.116,392.259Z" transform="translate(40.493 110.125)" fill="none" stroke="#fff" stroke-miterlimit="10" stroke-width="1"/>
    <path id="Path_319" data-name="Path 319" d="M145.406,476.359l-39.694-39.694-.419.419A71.721,71.721,0,0,0,96.817,528.3l14.786.293a4.039,4.039,0,0,1,2.715,6.947L108.2,541.4l99.076,99.076.425-.427a71.7,71.7,0,0,0-.006-101.4L159.187,490.14l-7.317,7.009a4.033,4.033,0,0,1-6.826-2.988Z" transform="translate(28.027 122.591)" fill="none" stroke="#fff" stroke-miterlimit="10" stroke-width="1"/>
    <path id="Path_320" data-name="Path 320" d="M36.235,498.421l30.78-30.78a15.985,15.985,0,0,0,0-22.6l-30.78-30.78L5.462,445.029a15.989,15.989,0,0,0,0,22.619Z" transform="translate(4.581 116.3)" fill="none" stroke="#fff" stroke-miterlimit="10" stroke-width="1"/>
    <path id="Path_321" data-name="Path 321" d="M19.919,433.368,50.7,402.588a15.989,15.989,0,0,0-.008-22.612L19.919,349.2l-30.772,30.772a15.987,15.987,0,0,0-.008,22.612Z" transform="translate(0 98.037)" fill="none" stroke="#fff" stroke-miterlimit="10" stroke-width="1"/>
    <path id="Path_322" data-name="Path 322" d="M79.325,455.331,110.1,424.559a15.987,15.987,0,0,0,.008-22.612l-30.78-30.78-30.78,30.78a15.987,15.987,0,0,0,.008,22.612Z" transform="translate(16.678 104.203)" fill="none" stroke="#fff" stroke-miterlimit="10" stroke-width="1"/>
  </g>
</svg>
