<svg xmlns="http://www.w3.org/2000/svg" width="624.59" height="746.417" viewBox="0 0 624.59 746.417">
  <g id="Group_141" data-name="Group 141" transform="translate(-1242.28 -4433)">
    <ellipse id="Ellipse_28" data-name="Ellipse 28" cx="303.97" cy="41.12" rx="303.97" ry="41.12" transform="translate(1242.28 5097.177)" fill="#e3b344" opacity="0.1"/>
    <path id="Path_327" data-name="Path 327" d="M1027.84,109.11S943.65,104,953.57,163c0,0-2,10.43,7.48,15.17,0,0,.15-4.38,8.64-2.89a39.411,39.411,0,0,0,9.14.44A19.08,19.08,0,0,0,990,171.13h0s23.67-9.77,32.87-48.46c0,0,6.81-8.44,6.54-10.61l-14.21,6.07s4.86,10.25,1,18.77c0,0-.46-18.4-3.19-18-.56.09-7.39,3.55-7.39,3.55s8.36,17.86,2.05,30.83c0,0,2.4-22-4.65-29.54l-10,5.84s9.77,18.44,3.15,33.49c0,0,1.7-23.08-5.25-32.07l-9.06,7.07s9.17,18.18,3.58,30.66c0,0-.73-26.87-5.55-28.9,0,0-7.92,7-9.13,9.86,0,0,6.28,13.2,2.38,20.16,0,0-2.39-17.9-4.35-18,0,0-7.9,11.86-8.72,20,0,0,.34-12.1,6.81-21.13,0,0-7.64,1.31-12.1,6.27,0,0,1.23-8.39,14-9.12,0,0,6.52-9,8.27-9.55,0,0-12.75-1.06-20.48,2.36,0,0,6.81-7.91,22.82-4.31l9-7.3s-16.79-2.3-23.9.24c0,0,8.19-7,26.31-1.9l9.74-5.83s-14.31-3.08-22.83-2c0,0,9-4.85,25.68.41l7-3.13s-10.48-2.06-13.55-2.38-3.24-1.18-3.24-1.18a36.39,36.39,0,0,1,19.7,2.19S1028.1,110,1027.84,109.11Z" transform="translate(1535.895 6110.708) rotate(-110)" fill="#e3b344"/>
    <ellipse id="Ellipse_29" data-name="Ellipse 29" cx="40.21" cy="6.8" rx="40.21" ry="6.8" transform="translate(1786.45 5143.817)" fill="#e3b344"/>
    <path id="Path_328" data-name="Path 328" d="M967.52,809.8a11.68,11.68,0,0,0,3.83-5.78c.5-2.3-.48-5-2.68-5.89-2.46-.94-5.09.76-7.08,2.48s-4.28,3.69-6.89,3.33a10.5,10.5,0,0,0,3.25-9.82,4.131,4.131,0,0,0-.91-2c-1.36-1.46-3.84-.83-5.47.32-5.2,3.66-6.65,10.72-6.68,17.08-.52-2.3-.08-4.69-.1-7s-.65-5-2.64-6.22a8,8,0,0,0-4-.95c-2.34-.08-4.94.15-6.53,1.86-2,2.12-1.47,5.69.25,8s4.35,3.8,6.77,5.42a14.89,14.89,0,0,1,4.83,4.61,3.833,3.833,0,0,1,.36.82h14.66a40.9,40.9,0,0,0,9.03-6.26Z" transform="translate(875.76 4329.697)" fill="#e3b344"/>
    <g id="Group_5" data-name="Group 5" transform="translate(1204.758 4339.998)">
      <path id="Path_33" data-name="Path 33" d="M862.845,255.832h-3.925V148.33A62.217,62.217,0,0,0,796.7,86.113H568.944a62.217,62.217,0,0,0-62.217,62.217V738.094a62.217,62.217,0,0,0,62.217,62.217H796.7a62.217,62.217,0,0,0,62.217-62.217V332.353h3.925Z" transform="translate(-330.386 6.889)" fill="#3f3d56"/>
      <path id="Path_34" data-name="Path 34" d="M799.539,102.606h-29.73a22.075,22.075,0,0,1-20.44,30.416H618.89a22.075,22.075,0,0,1-20.439-30.413H570.68a46.465,46.465,0,0,0-46.465,46.465V737.969a46.465,46.465,0,0,0,46.465,46.465H799.53a46.465,46.465,0,0,0,46.465-46.465h0v-588.9a46.465,46.465,0,0,0-46.465-46.465Z" transform="translate(-330.712 6.581)" fill="#fff"/>
      <rect id="Rectangle_18" data-name="Rectangle 18" width="263.557" height="450.244" transform="translate(222.62 224.979)" fill="#e6e6e6"/>
      <circle id="Ellipse_7" data-name="Ellipse 7" cx="25.515" cy="25.515" r="25.515" transform="translate(329.275 707.075)" fill="#e6e6e6"/>
      <g id="Group_1" data-name="Group 1" transform="translate(384.232 255.459)">
        <path id="Path_16" data-name="Path 16" d="M154.122,708.867l-2.915,28.177,16.517-1.943,1.943-23.319Z" transform="translate(-61.598 -240.908)" fill="#ffb9b9"/>
        <path id="Path_17" data-name="Path 17" d="M155.572,470.055S71.041,551.671,124.48,576.933H141s35.95-59.273,53.439-58.3l4.858,56.354L196.38,688.669l21.376.971s12.631-57.325,11.659-89.389l22.347-118.538Z" transform="translate(-106.77 -215.852)" fill="#2f2e41"/>
        <path id="Path_18" data-name="Path 18" d="M136.723,597.215l11.659,3.886s45.666-10.688,48.577-9.715l9.041-.063-.294-23.258H166.844Z" transform="translate(-114.157 -240.02)" fill="#2f2e41"/>
        <path id="Path_19" data-name="Path 19" d="M242.844,782.3s-17.49-7.773-20.4,0-1.943,30.12-1.943,30.12A21.612,21.612,0,0,1,222.44,827c-1.943,7.773,7.773,11.659,20.4,7.773s12.631-13.6,12.631-13.6Z" transform="translate(-134.775 -291.995)" fill="#2f2e41"/>
        <path id="Path_20" data-name="Path 20" d="M264.465,564.652s13.6-7.773,12.631,3.886a76.824,76.824,0,0,1-5.83,22.347s12.631,33.035,0,35.95-22.347-3.886-22.347-8.745S264.465,564.652,264.465,564.652Z" transform="translate(-141.822 -238.553)" fill="#2f2e41"/>
        <path id="Path_21" data-name="Path 21" d="M138.31,166.909l1.944,36.922L156.771,218.4l18.461-26.233V165.937Z" transform="translate(-58.418 -107.029)" fill="#ffb9b9"/>
        <path id="Path_22" data-name="Path 22" d="M212.408,256.1l-11.123-8.265-7.338,11.179-33.035,19.431,19.431,50.524.972,49.553s-35.95,36.921-14.574,41.78,97.162,15.546,101.048,6.8S262.932,328,262.932,328l2.915-76.758L236.7,240.7Z" transform="translate(-119.885 -159.296)" fill="#7c632a"/>
        <path id="Path_23" data-name="Path 23" d="M150.231,342.708s-7.773,55.054,6.8,55.054a66.928,66.928,0,0,0,25.262-4.858l-11.659-30.12,4.858-20.4Z" transform="translate(-116.976 -184.369)" fill="#ffb9b9"/>
        <path id="Path_24" data-name="Path 24" d="M177.389,395.1l10.688,1.943s31.092-19.431,33.035-20.4-31.092-17.49-31.092-17.49l-22.347,8.745Z" transform="translate(-121.788 -188.504)" fill="#ffb9b9"/>
        <path id="Path_25" data-name="Path 25" d="M185.209,355.013,171.176,360.5l4.318-18.122-25.262.325s-7.773,55.054,6.8,55.054A66.928,66.928,0,0,0,182.3,392.9l-.074-.19,1.045.19s31.092-19.431,33.035-20.4S185.209,355.013,185.209,355.013Z" transform="translate(-116.976 -184.369)" opacity="0.1"/>
        <circle id="Ellipse_5" data-name="Ellipse 5" cx="27.745" cy="27.745" r="27.745" transform="translate(74.625 22.813)" fill="#ffb9b9"/>
        <path id="Path_26" data-name="Path 26" d="M206.648,151.911l-5.421-2.17s11.335-12.479,27.1-11.393l-4.436-4.883s10.842-4.34,20.7,7.053c5.182,5.986,11.176,13.029,14.916,20.96h5.806l-2.423,5.335,8.478,5.338-8.7-.959a29.52,29.52,0,0,1-.823,13.817l.234,4.22s-10.089-15.61-10.089-17.78v5.426s-5.421-4.883-5.421-8.138l-2.957,3.8-1.483-5.977-18.233,5.968,2.957-4.883-11.335,1.628,4.436-5.968s-12.812,7.053-13.306,13.021-6.9,13.563-6.9,13.563l-2.957-5.426S192.357,160.049,206.648,151.911Z" transform="translate(-128.808 -132.653)" fill="#2f2e41"/>
        <path id="Path_27" data-name="Path 27" d="M250.862,319.747a34.923,34.923,0,0,0-7.773,21.376l-51.5-1.943s-13.6-1.943-13.6,7.773v9.715s6.8-2.915,10.688,0,45.666,28.177,66.07,18.461S280.01,327.52,280.01,327.52,261.55,311.973,250.862,319.747Z" transform="translate(-124.332 -178.251)" fill="#ffb9b9"/>
        <path id="Path_28" data-name="Path 28" d="M284.786,255.66l7.773-.972s15.545,1.943,13.6,32.064-2.915,32.064-2.915,32.064-20.4-18.461-34.978-9.715Z" transform="translate(-146.592 -162.746)" fill="#7c632a"/>
        <path id="Path_29" data-name="Path 29" d="M161.455,290.8h-3.886a35.993,35.993,0,0,0-7.773,22.347,107.544,107.544,0,0,1-3.4,25.748L177,333.551Z" transform="translate(-116.541 -171.649)" fill="#7c632a"/>
      </g>
    </g>
  </g>
</svg>
