<svg xmlns="http://www.w3.org/2000/svg" width="239" height="240" viewBox="0 0 239 240">
  <g id="Group_137" data-name="Group 137" transform="translate(-1038 -2735)">
    <g id="Group_136" data-name="Group 136">
      <ellipse id="Ellipse_14" data-name="Ellipse 14" cx="119.5" cy="120" rx="119.5" ry="120" transform="translate(1038 2735)" fill="#e3b344"/>
    </g>
    <g id="workhome-virus-covid19-coronavirus-home" transform="translate(1087.29 2784.415)">
      <path id="Path_103" data-name="Path 103" d="M50.295,40.884a2.3,2.3,0,0,0,2.295-2.295V36.295a2.295,2.295,0,0,0-4.589,0v2.295A2.3,2.3,0,0,0,50.295,40.884Z" transform="translate(59.555 41.43)" fill="#fff"/>
      <path id="Path_104" data-name="Path 104" d="M46.295,40.884a2.3,2.3,0,0,0,2.295-2.295V36.295a2.295,2.295,0,0,0-4.589,0v2.295A2.3,2.3,0,0,0,46.295,40.884Z" transform="translate(54.376 41.43)" fill="#fff"/>
      <path id="Path_105" data-name="Path 105" d="M53.851,39.672a4.2,4.2,0,0,1-5.934,0,2.295,2.295,0,1,0-3.245,3.245,8.791,8.791,0,0,0,12.424,0,2.295,2.295,0,1,0-3.245-3.245Z" transform="translate(54.376 47.903)" fill="#fff"/>
      <path id="Path_106" data-name="Path 106" d="M123.618,105.26h-6.884a2.3,2.3,0,0,1-2.295-2.295v-2.891A16.086,16.086,0,0,0,121.323,86.9a6.9,6.9,0,0,0,6.884-6.884V77.724a6.852,6.852,0,0,0-2.295-5.094V61.662a11.473,11.473,0,0,0-11.473-11.473v-3.58l3.6,1.928a7.953,7.953,0,0,0,8.215.39A8.057,8.057,0,0,0,126.716,35L67.352,2.275a2.341,2.341,0,0,0-2.2,0L5.626,35.089a8.066,8.066,0,0,0,.62,13.837,8.272,8.272,0,0,0,3.855.964,7.432,7.432,0,0,0,4.176-1.239l3.786-2.042V93.787H14.6a6.884,6.884,0,0,0-6.723,8.376l7.159,32.125a6.829,6.829,0,0,0,6.7,5.393H137.386a2.3,2.3,0,0,0,2.295-2.295V121.323a16.081,16.081,0,0,0-16.063-16.063Zm-7.985,4.475a13.786,13.786,0,0,1-20.744,0,6.861,6.861,0,0,0,5.783-6.769V102.3a16.159,16.159,0,0,0,9.179,0v.665a6.861,6.861,0,0,0,5.783,6.769Zm1.1-22.832a11.473,11.473,0,0,1-22.947,0l.184-16.063A11.68,11.68,0,0,0,99.179,69.6l1.492-.78,1.331.711a11.7,11.7,0,0,0,5.324,1.308h9.408Zm6.884-9.179v2.295a2.3,2.3,0,0,1-2.295,2.295V75.43A2.3,2.3,0,0,1,123.618,77.724Zm-2.295-16.063V70.84a4.6,4.6,0,0,0-4.589-4.589h-9.408a7.04,7.04,0,0,1-3.19-.78l-2.386-1.262a2.3,2.3,0,0,0-2.111,0l-2.547,1.285a6.951,6.951,0,0,1-3.3.757A4.6,4.6,0,0,0,89.2,70.84V61.662a4.6,4.6,0,0,1,4.589-4.589h2.295a2.3,2.3,0,0,1,2.295,2.295,2.295,2.295,0,0,0,4.589,0V57.072a2.3,2.3,0,0,1,2.295-2.295h9.179A6.9,6.9,0,0,1,121.323,61.662ZM11.936,44.727a3.442,3.442,0,0,1-5.347-2.891,3.4,3.4,0,0,1,1.4-2.8L66.251,6.911l58.1,32.034a3.467,3.467,0,0,1-.252,5.943,3.593,3.593,0,0,1-3.717-.275L67.329,16.043a2.249,2.249,0,0,0-2.157,0Zm9.8,90.364a2.26,2.26,0,0,1-2.226-1.79l-7.136-32.125a2.3,2.3,0,0,1,.436-1.95,2.345,2.345,0,0,1,1.79-.849H64.874a2.26,2.26,0,0,1,2.226,1.79l7.756,34.925Zm52.571-23.635L71.575,99.18a6.829,6.829,0,0,0-6.7-5.393H22.652V45.255a2.393,2.393,0,0,0-.229-.987L66.251,20.679l43.6,23.452v6.058H105.26a6.884,6.884,0,0,0-5.806,3.19,6.733,6.733,0,0,0-3.373-.895H93.787a9.179,9.179,0,0,0-9.179,9.179V72.63a6.852,6.852,0,0,0-2.295,5.094v2.295A6.9,6.9,0,0,0,89.2,86.9a16.086,16.086,0,0,0,6.884,13.171v2.891a2.3,2.3,0,0,1-2.295,2.295H86.9a16.157,16.157,0,0,0-12.6,6.2ZM89.2,75.43v6.884A2.3,2.3,0,0,1,86.9,80.019V77.724A2.3,2.3,0,0,1,89.2,75.43Zm9.179,59.662H79.56L78.55,130.5h24.415a4.6,4.6,0,0,1-4.589,4.589Zm36.715,0h-9.179V123.618a2.295,2.295,0,1,0-4.589,0v11.473H106.27a8.963,8.963,0,0,0,1.285-4.589v-2.295a2.3,2.3,0,0,0-2.295-2.295H77.518l-1.675-7.549A11.519,11.519,0,0,1,86.9,109.85h2.524a18.245,18.245,0,0,0,31.667,0h2.524a11.473,11.473,0,0,1,11.473,11.473Z" transform="translate(0 0)" fill="#fff"/>
      <path id="Path_107" data-name="Path 107" d="M23.884,62.768a6.884,6.884,0,1,1,6.884-6.884A6.884,6.884,0,0,1,23.884,62.768Zm0-9.179a2.295,2.295,0,1,0,2.295,2.295A2.295,2.295,0,0,0,23.884,53.589Z" transform="translate(19.42 60.85)" fill="#fff"/>
      <path id="Path_108" data-name="Path 108" d="M19.884,56.715H32.842l10.785,8.672a2.288,2.288,0,0,0,3.724-1.769l.05-6.9h9.2a6.884,6.884,0,0,0,6.884-6.884V26.884A6.884,6.884,0,0,0,56.6,20H19.884A6.884,6.884,0,0,0,13,26.884V49.831A6.884,6.884,0,0,0,19.884,56.715ZM17.589,26.884a2.3,2.3,0,0,1,2.295-2.295H56.6a2.3,2.3,0,0,1,2.295,2.295V49.831A2.3,2.3,0,0,1,56.6,52.125H45.125A2.3,2.3,0,0,0,42.831,54.4L42.8,58.835l-7.706-6.2a2.3,2.3,0,0,0-1.439-.514H19.884a2.3,2.3,0,0,1-2.295-2.295Z" transform="translate(14.241 23.304)" fill="#fff"/>
      <path id="Path_109" data-name="Path 109" d="M19.295,28.589h2.295a2.295,2.295,0,0,0,0-4.589H19.295a2.295,2.295,0,0,0,0,4.589Z" transform="translate(19.42 28.483)" fill="#fff"/>
      <path id="Path_110" data-name="Path 110" d="M23.295,28.589H41.652a2.295,2.295,0,0,0,0-4.589H23.295a2.295,2.295,0,0,0,0,4.589Z" transform="translate(24.599 28.483)" fill="#fff"/>
      <path id="Path_111" data-name="Path 111" d="M23.295,31.589H41.652a2.295,2.295,0,1,0,0-4.589H23.295a2.295,2.295,0,0,0,0,4.589Z" transform="translate(24.599 32.367)" fill="#fff"/>
      <path id="Path_112" data-name="Path 112" d="M19.295,31.589h2.295a2.295,2.295,0,1,0,0-4.589H19.295a2.295,2.295,0,1,0,0,4.589Z" transform="translate(19.42 32.367)" fill="#fff"/>
      <path id="Path_113" data-name="Path 113" d="M19.295,34.589h2.295a2.295,2.295,0,0,0,0-4.589H19.295a2.295,2.295,0,0,0,0,4.589Z" transform="translate(19.42 36.251)" fill="#fff"/>
      <path id="Path_114" data-name="Path 114" d="M23.295,34.589H41.652a2.295,2.295,0,0,0,0-4.589H23.295a2.295,2.295,0,0,0,0,4.589Z" transform="translate(24.599 36.251)" fill="#fff"/>
    </g>
  </g>
</svg>
