<svg xmlns="http://www.w3.org/2000/svg" width="239" height="240" viewBox="0 0 239 240">
  <g id="Group_135" data-name="Group 135" transform="translate(-1459 -2735)">
    <ellipse id="Ellipse_14" data-name="Ellipse 14" cx="119.5" cy="120" rx="119.5" ry="120" transform="translate(1459 2735)" fill="#e3b344"/>
    <g id="enterprise" transform="translate(1514.077 2786)">
      <g id="Group_56" data-name="Group 56" transform="translate(47.9 45.715)">
        <g id="Group_55" data-name="Group 55" transform="translate(0 0)">
          <rect id="Rectangle_49" data-name="Rectangle 49" width="5" height="5" transform="translate(0.023 0.285)" fill="#fff"/>
        </g>
      </g>
      <g id="Group_58" data-name="Group 58" transform="translate(47.9 55.561)">
        <g id="Group_57" data-name="Group 57" transform="translate(0 0)">
          <rect id="Rectangle_50" data-name="Rectangle 50" width="5" height="4" transform="translate(0.023 0.439)" fill="#fff"/>
        </g>
      </g>
      <g id="Group_60" data-name="Group 60" transform="translate(47.9 64.704)">
        <g id="Group_59" data-name="Group 59" transform="translate(0 0)">
          <rect id="Rectangle_51" data-name="Rectangle 51" width="5" height="4" transform="translate(0.023 0.296)" fill="#fff"/>
        </g>
      </g>
      <g id="Group_62" data-name="Group 62" transform="translate(47.9 73.144)">
        <g id="Group_61" data-name="Group 61" transform="translate(0 0)">
          <rect id="Rectangle_52" data-name="Rectangle 52" width="5" height="5" transform="translate(0.023 -0.144)" fill="#fff"/>
        </g>
      </g>
      <g id="Group_64" data-name="Group 64" transform="translate(57.746 45.715)">
        <g id="Group_63" data-name="Group 63" transform="translate(0 0)">
          <rect id="Rectangle_53" data-name="Rectangle 53" width="4" height="5" transform="translate(0.177 0.285)" fill="#fff"/>
        </g>
      </g>
      <g id="Group_66" data-name="Group 66" transform="translate(57.746 55.561)">
        <g id="Group_65" data-name="Group 65" transform="translate(0 0)">
          <rect id="Rectangle_54" data-name="Rectangle 54" width="4" height="4" transform="translate(0.177 0.439)" fill="#fff"/>
        </g>
      </g>
      <g id="Group_68" data-name="Group 68" transform="translate(57.746 64.704)">
        <g id="Group_67" data-name="Group 67" transform="translate(0 0)">
          <rect id="Rectangle_55" data-name="Rectangle 55" width="4" height="4" transform="translate(0.177 0.296)" fill="#fff"/>
        </g>
      </g>
      <g id="Group_70" data-name="Group 70" transform="translate(57.746 73.144)">
        <g id="Group_69" data-name="Group 69" transform="translate(0 0)">
          <rect id="Rectangle_56" data-name="Rectangle 56" width="4" height="5" transform="translate(0.177 -0.144)" fill="#fff"/>
        </g>
      </g>
      <g id="Group_72" data-name="Group 72" transform="translate(66.889 45.715)">
        <g id="Group_71" data-name="Group 71" transform="translate(0 0)">
          <rect id="Rectangle_57" data-name="Rectangle 57" width="4" height="5" transform="translate(0.034 0.285)" fill="#fff"/>
        </g>
      </g>
      <g id="Group_74" data-name="Group 74" transform="translate(66.889 55.561)">
        <g id="Group_73" data-name="Group 73" transform="translate(0 0)">
          <rect id="Rectangle_58" data-name="Rectangle 58" width="4" height="4" transform="translate(0.034 0.439)" fill="#fff"/>
        </g>
      </g>
      <g id="Group_76" data-name="Group 76" transform="translate(66.889 64.704)">
        <g id="Group_75" data-name="Group 75" transform="translate(0 0)">
          <rect id="Rectangle_59" data-name="Rectangle 59" width="4" height="4" transform="translate(0.034 0.296)" fill="#fff"/>
        </g>
      </g>
      <g id="Group_78" data-name="Group 78" transform="translate(66.889 73.144)">
        <g id="Group_77" data-name="Group 77" transform="translate(0 0)">
          <rect id="Rectangle_60" data-name="Rectangle 60" width="4" height="5" transform="translate(0.034 -0.144)" fill="#fff"/>
        </g>
      </g>
      <g id="Group_80" data-name="Group 80" transform="translate(75.329 45.715)">
        <g id="Group_79" data-name="Group 79" transform="translate(0 0)">
          <rect id="Rectangle_61" data-name="Rectangle 61" width="5" height="5" transform="translate(-0.406 0.285)" fill="#fff"/>
        </g>
      </g>
      <g id="Group_82" data-name="Group 82" transform="translate(57.746 36.572)">
        <g id="Group_81" data-name="Group 81" transform="translate(0 0)">
          <rect id="Rectangle_62" data-name="Rectangle 62" width="4" height="4" transform="translate(0.177 0.428)" fill="#fff"/>
        </g>
      </g>
      <g id="Group_84" data-name="Group 84" transform="translate(66.889 36.572)">
        <g id="Group_83" data-name="Group 83" transform="translate(0 0)">
          <rect id="Rectangle_63" data-name="Rectangle 63" width="4" height="4" transform="translate(0.034 0.428)" fill="#fff"/>
        </g>
      </g>
      <g id="Group_86" data-name="Group 86" transform="translate(75.329 36.572)">
        <g id="Group_85" data-name="Group 85" transform="translate(0 0)">
          <rect id="Rectangle_64" data-name="Rectangle 64" width="5" height="4" transform="translate(-0.406 0.428)" fill="#fff"/>
        </g>
      </g>
      <g id="Group_88" data-name="Group 88" transform="translate(75.329 55.561)">
        <g id="Group_87" data-name="Group 87" transform="translate(0 0)">
          <rect id="Rectangle_65" data-name="Rectangle 65" width="5" height="4" transform="translate(-0.406 0.439)" fill="#fff"/>
        </g>
      </g>
      <g id="Group_90" data-name="Group 90" transform="translate(75.329 64.704)">
        <g id="Group_89" data-name="Group 89" transform="translate(0 0)">
          <rect id="Rectangle_66" data-name="Rectangle 66" width="5" height="4" transform="translate(-0.406 0.296)" fill="#fff"/>
        </g>
      </g>
      <g id="Group_92" data-name="Group 92" transform="translate(75.329 73.144)">
        <g id="Group_91" data-name="Group 91" transform="translate(0 0)">
          <rect id="Rectangle_67" data-name="Rectangle 67" width="5" height="5" transform="translate(-0.406 -0.144)" fill="#fff"/>
        </g>
      </g>
      <g id="Group_94" data-name="Group 94" transform="translate(85.175 45.715)">
        <g id="Group_93" data-name="Group 93" transform="translate(0 0)">
          <rect id="Rectangle_68" data-name="Rectangle 68" width="4" height="5" transform="translate(-0.252 0.285)" fill="#fff"/>
        </g>
      </g>
      <g id="Group_96" data-name="Group 96" transform="translate(85.175 55.561)">
        <g id="Group_95" data-name="Group 95" transform="translate(0 0)">
          <rect id="Rectangle_69" data-name="Rectangle 69" width="4" height="4" transform="translate(-0.252 0.439)" fill="#fff"/>
        </g>
      </g>
      <g id="Group_98" data-name="Group 98" transform="translate(85.175 64.704)">
        <g id="Group_97" data-name="Group 97" transform="translate(0 0)">
          <rect id="Rectangle_70" data-name="Rectangle 70" width="4" height="4" transform="translate(-0.252 0.296)" fill="#fff"/>
        </g>
      </g>
      <g id="Group_100" data-name="Group 100" transform="translate(85.175 73.144)">
        <g id="Group_99" data-name="Group 99" transform="translate(0 0)">
          <rect id="Rectangle_71" data-name="Rectangle 71" width="4" height="5" transform="translate(-0.252 -0.144)" fill="#fff"/>
        </g>
      </g>
      <g id="Group_102" data-name="Group 102" transform="translate(0 0)">
        <g id="Group_101" data-name="Group 101">
          <path id="Path_101" data-name="Path 101" d="M135.627,34.481H101.144V2.3a2.3,2.3,0,0,0-2.3-2.3H39.078a2.3,2.3,0,0,0-2.3,2.3V34.481H2.3a2.3,2.3,0,0,0-2.3,2.3v82.757a2.3,2.3,0,0,0,2.3,2.3H7.1a13.8,13.8,0,0,0-.208,2.3v11.494a2.3,2.3,0,0,0,2.3,2.3H128.728a2.3,2.3,0,0,0,2.3-2.3v-11.5a13.733,13.733,0,0,0-.208-2.3h4.805a2.3,2.3,0,0,0,2.3-2.3V36.78A2.3,2.3,0,0,0,135.627,34.481ZM98.845,98.845a4.6,4.6,0,1,1-4.6-4.6A4.6,4.6,0,0,1,98.845,98.845Zm-55.169-4.6a4.6,4.6,0,1,1-4.6,4.6A4.6,4.6,0,0,1,43.676,94.248ZM29.883,133.326H11.494v-9.195a9.195,9.195,0,1,1,18.39,0ZM16.091,105.741a4.6,4.6,0,1,1,4.6,4.6A4.6,4.6,0,0,1,16.091,105.741ZM30.232,114.2a13.857,13.857,0,0,0-2.892-2.14,9.195,9.195,0,1,0-13.3,0,13.881,13.881,0,0,0-5.275,5.179H4.6V39.078H36.78V92.827a9.07,9.07,0,0,0,.245,12.333A13.831,13.831,0,0,0,30.232,114.2Zm22.639,19.13H34.481V117.235a9.195,9.195,0,1,1,18.39,0Zm27.585,0H57.468V117.235a11.494,11.494,0,0,1,22.987,0ZM62.066,94.248a6.9,6.9,0,1,1,6.9,6.9A6.9,6.9,0,0,1,62.066,94.248Zm20.9,15.084a16.191,16.191,0,0,0-6.6-6.367,11.494,11.494,0,1,0-14.809,0,16.191,16.191,0,0,0-6.6,6.367,13.884,13.884,0,0,0-4.635-4.172,9.129,9.129,0,0,0-8.95-15.183V4.6H96.546V89.977A9.154,9.154,0,0,0,87.6,105.16,13.884,13.884,0,0,0,82.961,109.332Zm20.481,14.8v9.195H85.053V117.235a9.195,9.195,0,1,1,18.39,0Zm22.987,9.195H108.04v-9.195a9.195,9.195,0,1,1,18.39,0Zm-13.792-27.585a4.6,4.6,0,1,1,4.6,4.6A4.6,4.6,0,0,1,112.637,105.741Zm20.689,11.494h-4.165a13.881,13.881,0,0,0-5.275-5.179,9.195,9.195,0,1,0-13.3,0,13.85,13.85,0,0,0-2.892,2.14,13.83,13.83,0,0,0-6.793-9.037,9.07,9.07,0,0,0,.245-12.333V39.078h32.182v78.157Z" transform="translate(0 0)" fill="#fff"/>
        </g>
      </g>
      <g id="Group_104" data-name="Group 104" transform="translate(108.384 52.748)">
        <g id="Group_103" data-name="Group 103" transform="translate(0 0)">
          <rect id="Rectangle_72" data-name="Rectangle 72" width="5" height="37" transform="translate(-0.461 0.252)" fill="#fff"/>
        </g>
      </g>
      <g id="Group_106" data-name="Group 106" transform="translate(121.747 52.748)">
        <g id="Group_105" data-name="Group 105" transform="translate(0 0)">
          <rect id="Rectangle_73" data-name="Rectangle 73" width="4" height="37" transform="translate(0.176 0.252)" fill="#fff"/>
        </g>
      </g>
      <g id="Group_108" data-name="Group 108" transform="translate(11.328 52.748)">
        <g id="Group_107" data-name="Group 107" transform="translate(0 0)">
          <rect id="Rectangle_74" data-name="Rectangle 74" width="5" height="37" transform="translate(-0.405 0.252)" fill="#fff"/>
        </g>
      </g>
      <g id="Group_110" data-name="Group 110" transform="translate(25.394 52.748)">
        <g id="Group_109" data-name="Group 109" transform="translate(0 0)">
          <rect id="Rectangle_75" data-name="Rectangle 75" width="5" height="37" transform="translate(-0.471 0.252)" fill="#fff"/>
        </g>
      </g>
      <g id="Group_112" data-name="Group 112" transform="translate(52.871 9.195)">
        <g id="Group_111" data-name="Group 111">
          <path id="Path_102" data-name="Path 102" d="M213.886,32H186.3a2.3,2.3,0,0,0-2.3,2.3V52.689a2.3,2.3,0,0,0,2.3,2.3h27.587a2.3,2.3,0,0,0,2.3-2.3V34.3A2.3,2.3,0,0,0,213.886,32Zm-2.3,18.39H188.6V36.6h22.987Z" transform="translate(-184 -32)" fill="#fff"/>
        </g>
      </g>
    </g>
  </g>
</svg>
