<svg xmlns="http://www.w3.org/2000/svg" width="94.978" height="71.28" viewBox="0 0 94.978 71.28">
  <g id="Group_114" data-name="Group 114" transform="translate(-293.5 -23.04)" opacity="0.1">
    <path id="Path_178" data-name="Path 178" d="M480.66,104.77c-3,.54-5.22,3.39-6,6.37s-.57,6.12-.56,9.21a59.611,59.611,0,0,1-3.22,19.5l-13.35-26.91c-.26-.53-.53-1.08-.79-1.63a36.365,36.365,0,0,0,2.29,5.38l13.35,26.91a59.61,59.61,0,0,0,3.22-19.5c0-3.09-.25-6.23.56-9.21s3-5.83,6-6.37a40.136,40.136,0,0,1,2.59,4.73A39,39,0,0,0,480.66,104.77Z" transform="translate(-163.24 -49.28)"/>
    <path id="Path_179" data-name="Path 179" d="M549.83,72.32a14.16,14.16,0,0,1-.24,7.45,8.828,8.828,0,0,1-1.77,3.29c-2.27,2.51-6,2.81-9.42,2.94l-23.06.86a21.23,21.23,0,0,0-5.51.69c-6.78,2.09-9.92,9.31-10.17,15.8s-4,13.76-11.27,14.33a2.81,2.81,0,0,1-2.07-.46h0c.23.65.45,1.31.64,2a3.3,3.3,0,0,0,.87,1.77,2.81,2.81,0,0,0,2.07.46c7.32-.57,11-7.77,11.27-14.33s3.39-13.71,10.17-15.8a21.231,21.231,0,0,1,5.51-.69l23.06-.86c3.38-.13,7.15-.43,9.42-2.94a8.831,8.831,0,0,0,1.77-3.29,14.2,14.2,0,0,0-1.27-11.22Z" transform="translate(-163.24 -49.28)"/>
  </g>
</svg>
