<svg xmlns="http://www.w3.org/2000/svg" xmlns:xlink="http://www.w3.org/1999/xlink" width="3566.123" height="2522.698" viewBox="0 0 3566.123 2522.698">
  <defs>
    <clipPath id="clip-path">
      <rect id="Rectangle_6" data-name="Rectangle 6" width="3566.123" height="2522.698" rx="4.704" fill="rgba(0,0,0,0)"/>
    </clipPath>
    <linearGradient id="linear-gradient" x1="1.276" y1="0.075" x2="1.172" y2="-0.14" gradientUnits="objectBoundingBox">
      <stop offset="0" stop-color="#e19e36"/>
      <stop offset="1" stop-color="#e3be4a"/>
    </linearGradient>
    <clipPath id="clip-path-2">
      <path id="Path_7" data-name="Path 7" d="M941.4,3812.966c-472.734-74.88-492.571-474.674-342.443-697.018,212.676-314.994,406.854-263.7,110.2-782.522C608.436,2157.273,569.7,1932.351,646,1737.845c54.876-139.9,168.339-254.6,305.387-297.193,76.246-23.69,156.886-25.392,234.949-41.053s158.3-49.188,203.807-118.287c43.825-66.545,47.5-154.134,36.986-234.552-25.286-193.411-124.931-370.5-133.841-566.9-7.507-165.541,44.1-355.6,154.274-476.043,144.219-157.644,368.277-191.565,565.344-203.7,231.128-14.235,464.1,22.513,683.854,98.614,281.517,97.488,541.516,258.342,772.9,454.443,205.99,174.577,392.112,379.839,523.919,622.1,208.46,383.149,329.117,1007.826-95.6,1282.011-511.324,330.1-841.159-242.2-868.91,320.914-16.6,336.958-244.072,863.848-864.381,601.394S1622.2,3920.8,941.4,3812.966Z" transform="translate(-515.879 202.906)" fill="rgba(0,0,0,0)"/>
    </clipPath>
    <linearGradient id="linear-gradient-2" x1="0.502" y1="0.32" x2="0.462" y2="-0.08" xlink:href="#linear-gradient"/>
    <linearGradient id="linear-gradient-3" x1="0.633" y1="0.572" x2="0.273" y2="-0.032" xlink:href="#linear-gradient"/>
  </defs>
  <g id="Group_142" data-name="Group 142" transform="translate(206.56 292)">
    <g id="Group_9" data-name="Group 9" transform="translate(-488.189 -220.056)">
      <g id="Group_8" data-name="Group 8" transform="translate(281.628 -71.944)">
        <g id="Group_7" data-name="Group 7" transform="translate(0 0)">
          <g id="Group_6" data-name="Group 6" clip-path="url(#clip-path)">
            <path id="Path_4" data-name="Path 4" d="M941.4,3812.966c-472.734-74.88-492.571-474.674-342.443-697.018,212.676-314.994,406.854-263.7,110.2-782.522C608.436,2157.273,569.7,1932.351,646,1737.845c54.876-139.9,168.339-254.6,305.387-297.193,76.246-23.69,156.886-25.392,234.949-41.053s158.3-49.188,203.807-118.287c43.825-66.545,47.5-154.134,36.986-234.552-25.286-193.411-124.931-370.5-133.841-566.9-7.507-165.541,44.1-355.6,154.274-476.043,144.219-157.644,368.277-191.565,565.344-203.7,231.128-14.235,464.1,22.513,683.854,98.614,281.517,97.488,541.516,258.342,772.9,454.443,205.99,174.577,392.112,379.839,523.919,622.1,208.46,383.149,329.117,1007.826-95.6,1282.011-511.324,330.1-841.159-242.2-868.91,320.914-16.6,336.958-244.072,863.848-864.381,601.394S1622.2,3920.8,941.4,3812.966Z" transform="translate(-1950.071 -877.239)" fill="url(#linear-gradient)"/>
            <g id="Group_5" data-name="Group 5" transform="translate(-1541.626 -1120.856)">
              <g id="Group_4" data-name="Group 4" clip-path="url(#clip-path-2)">
                <path id="Path_5" data-name="Path 5" d="M3145.765,416.336c-9.523-339.411-258.437-385.026-409.62-296.711-214.176,125.119-197.387,266.151-498.981,15.843-102.4-84.979-240.251-130.088-368.154-91.656-92,27.644-172.825,98.62-210.353,191.928-20.875,51.916-28.316,108.669-44.3,162.494s-43.342,107.781-90.239,134.424c-45.153,25.648-100.318,21.312-149.87,7.534C1255.069,507.06,1152,422.756,1029.656,400.937c-103.13-18.39-226.287,2.978-310.458,71.176C609.02,561.385,570.042,716.765,546.85,854.824c-27.2,161.918-22.6,329.168,7.7,490.21,38.813,206.3,119.029,402.446,223.586,581.183,93.088,159.115,206.962,306.66,348.322,418.8,223.568,177.361,605.39,311.879,810.778,33.951,247.262-334.592-85.222-612.538,269.782-587.578,212.422,14.942,560.532-103.858,445.16-562.193C2536.806,770.846,3159.481,905.125,3145.765,416.336Z" transform="translate(444.698 1427.164)" fill="url(#linear-gradient-2)"/>
                <path id="Path_6" data-name="Path 6" d="M2723.9,288.323C2613.585-10.021,2378.742,33.554,2270.923,163.1c-152.746,183.525-95.517,303.169-438.591,182.667-116.469-40.91-252.5-34.408-354.6,42.956-73.434,55.645-123.964,146.012-129.295,241.6-2.972,53.174,7.448,106.11,9.388,159.34S1351.667,900.074,1318,939.582c-32.427,38.05-82.745,52.836-130.91,57.341-115.827,10.825-232.7-29.253-347.951-7.3-97.145,18.5-200.158,79.1-254.479,168.132-71.1,116.547-59.111,267.766-38.282,398.26,24.419,153.058,78.694,300.109,153.932,432.95,96.4,170.183,226.522,317.354,373.059,440.833,130.456,109.915,275.908,202.528,435.153,254.406,251.861,82.045,631.478,72.559,730.551-243.775,119.281-380.815-259.521-515.432,63.385-613.2,193.217-58.5,466.856-281.669,226.811-649.925S2882.759,717.976,2723.9,288.323Z" transform="translate(831.007 1604.847)" fill="url(#linear-gradient-3)"/>
              </g>
            </g>
          </g>
        </g>
      </g>
    </g>
  </g>
</svg>
