<svg xmlns="http://www.w3.org/2000/svg" width="239" height="240" viewBox="0 0 239 240">
  <g id="Group_138" data-name="Group 138" transform="translate(-617 -2735)">
    <ellipse id="Ellipse_14" data-name="Ellipse 14" cx="119.5" cy="120" rx="119.5" ry="120" transform="translate(617 2735)" fill="#e3b344"/>
    <g id="work" transform="translate(663.583 2779)">
      <path id="Path_115" data-name="Path 115" d="M211.82,87.09h47.987a2.042,2.042,0,0,0,0-4.084H246.145a3.136,3.136,0,0,1-3.116-2.868h43.086A3.131,3.131,0,0,1,283,83.005H269.336a2.042,2.042,0,1,0,0,4.084H283a7.219,7.219,0,0,0,7.211-7.211,3.827,3.827,0,0,0-3.693-3.819,6.393,6.393,0,0,0,.448-2.353V50.681a6.438,6.438,0,0,0-6.431-6.431H266c.139-3.5-1.228-6.8-3.535-7.985-.405-.209-2.016-1.128-2.016-1.559V20.388A20.377,20.377,0,0,0,239.8,0a20.6,20.6,0,0,0-20.12,20.659V34.7a.212.212,0,0,1-.037.124l-.023.026a6.373,6.373,0,0,1-1.968,1.413c-2.186,1.127-3.608,4.249-3.539,7.77a10.745,10.745,0,0,0,2.4,6.767l-1.468.569-.039.016a13.155,13.155,0,0,0-7.785,12v19.1A4.606,4.606,0,0,0,211.82,87.09Zm30.359-35.871a10.422,10.422,0,0,1-9.033-2.482,3.463,3.463,0,0,0,2.287-3.863,14.339,14.339,0,0,0,9.254.029v.689A6.523,6.523,0,0,0,242.179,51.219Zm-2.146-9.656a9.649,9.649,0,0,1-9.782-9.638V25.449c1.643,0,3.454-.133,3.726-.178a8.836,8.836,0,0,0,6.09-3.213c2.619,3.167,5.852,3.391,9.81,3.391v6.36A9.755,9.755,0,0,1,240.033,41.562Zm40.5,6.773a2.349,2.349,0,0,1,2.346,2.346V73.707a2.349,2.349,0,0,1-2.346,2.346H248.61a2.349,2.349,0,0,1-2.346-2.346V50.681a2.355,2.355,0,0,1,2.325-2.345h31.945ZM219.521,39.9a10.192,10.192,0,0,0,3.184-2.37l.021-.024a4.3,4.3,0,0,0,1.035-2.8V20.661a16.5,16.5,0,0,1,16.3-16.577,16.292,16.292,0,0,1,16.3,16.3V34.706c0,2.468,2.028,4.055,4.228,5.189.656.338,1.431,2.19,1.314,4.355H248.771c0-1.308,0-.971,0-1.618a13.915,13.915,0,0,0,5.191-10.824V24.752a3.391,3.391,0,0,0-3.387-3.387,26.751,26.751,0,0,1-4.158-.177,4.867,4.867,0,0,1-4.173-3.652,2.241,2.241,0,0,0-4.358,0,4.867,4.867,0,0,1-4.223,3.663,29.976,29.976,0,0,1-4.109.166,3.391,3.391,0,0,0-3.387,3.387v7.172a13.69,13.69,0,0,0,5.182,10.732v2.395l-10.614,4.115a6.345,6.345,0,0,1-2.54-5.211C218.151,41.8,218.951,40.19,219.521,39.9ZM211.3,63.389a9.114,9.114,0,0,1,5.237-8.217l12.516-4.853a14.245,14.245,0,0,0,13.122,5.039V73.707a6.481,6.481,0,0,0,.444,2.349c-2.994.105-4.743,3.293-2.981,6.95H222.494V63.32a2.042,2.042,0,0,0-4.084,0v5.424H211.3Zm0,9.439h7.106V83.005H211.82a.517.517,0,0,1-.516-.516Z" transform="translate(-150.794 0)" fill="#fff"/>
      <path id="Path_116" data-name="Path 116" d="M408.078,224.99h2.569a2.042,2.042,0,1,0,0-4.084h-2.569a2.042,2.042,0,1,0,0,4.084Z" transform="translate(-295.474 -160.754)" fill="#fff"/>
      <path id="Path_117" data-name="Path 117" d="M4.6,279.255H75.78a7.219,7.219,0,0,0,7.211-7.211,3.827,3.827,0,0,0-3.693-3.819,6.394,6.394,0,0,0,.448-2.353V242.846a6.438,6.438,0,0,0-6.431-6.431H58.784c.14-3.5-1.228-6.8-3.535-7.985a6.379,6.379,0,0,1-1.958-1.4.246.246,0,0,1-.058-.158V222.52a2.042,2.042,0,0,0-4.084,0v4.351a4.347,4.347,0,0,0,1.028,2.8,10.214,10.214,0,0,0,3.2,2.389c.656.338,1.431,2.19,1.314,4.355H41.552c0-1.042,0-.71,0-1.618a13.915,13.915,0,0,0,5.191-10.824v-7.057a3.391,3.391,0,0,0-3.387-3.387c-3.611,0-5.666.077-7.314-1.86a4.8,4.8,0,0,1-1.016-1.969,2.241,2.241,0,0,0-4.358,0,4.866,4.866,0,0,1-4.335,3.673,30.7,30.7,0,0,1-4,.157,3.391,3.391,0,0,0-3.387,3.387v7.172a13.689,13.689,0,0,0,5.182,10.732v2.395l-10.614,4.115a6.347,6.347,0,0,1-2.541-5.211c-.042-2.151.758-3.766,1.327-4.059a10.215,10.215,0,0,0,3.2-2.389l.014-.016a4.3,4.3,0,0,0,1.027-2.788V212.826A16.5,16.5,0,0,1,32.63,196.251a16.279,16.279,0,0,1,16.519,16.574,2.042,2.042,0,1,0,4.084,0,20.36,20.36,0,0,0-20.656-20.658,20.6,20.6,0,0,0-20.12,20.659v14.042a.216.216,0,0,1-.052.141l-.014.016a6.4,6.4,0,0,1-1.962,1.407c-2.186,1.127-3.608,4.249-3.539,7.77a10.745,10.745,0,0,0,2.4,6.768l-1.467.569-.04.016a13.157,13.157,0,0,0-7.786,12v19.1a4.606,4.606,0,0,0,4.6,4.6ZM78.9,272.3a3.131,3.131,0,0,1-3.116,2.868H38.9A3.132,3.132,0,0,1,35.81,272.3ZM34.96,242.847v.537a9.754,9.754,0,0,1-1.944.2,10.218,10.218,0,0,1-7.09-2.678,3.279,3.279,0,0,0,2.286-3.112v-.751a14.4,14.4,0,0,0,9.255.029v.689a6.431,6.431,0,0,0-2.508,5.09ZM73.315,240.5a2.349,2.349,0,0,1,2.346,2.346v23.026a2.349,2.349,0,0,1-2.346,2.346H41.391a2.349,2.349,0,0,1-2.346-2.346V242.847a2.356,2.356,0,0,1,2.346-2.346ZM23.032,224.09v-6.475c4.059,0,7.232-.259,9.816-3.391,2.617,3.164,5.819,3.391,9.809,3.391v6.36A9.856,9.856,0,0,1,27.3,232.08,9.616,9.616,0,0,1,23.032,224.09ZM4.084,255.555a9.115,9.115,0,0,1,5.237-8.217l12.517-4.852a14.055,14.055,0,0,0,11.178,5.179,13.823,13.823,0,0,0,1.944-.139v18.348a6.5,6.5,0,0,0,.444,2.349c-3.157.111-4.658,3.471-2.981,6.95H15.275V255.485a2.042,2.042,0,0,0-4.084,0v5.424H4.084Zm0,9.439H11.19V275.17H4.6a.517.517,0,0,1-.516-.516Z" transform="translate(0 -139.839)" fill="#fff"/>
      <path id="Path_118" data-name="Path 118" d="M200.859,417.156h2.568a2.042,2.042,0,1,0,0-4.084h-2.568a2.042,2.042,0,0,0,0,4.084Z" transform="translate(-144.68 -300.594)" fill="#fff"/>
      <path id="Path_119" data-name="Path 119" d="M70.624,98.242A2.042,2.042,0,0,0,72.666,96.2V72.665h40.112a2.042,2.042,0,1,0,0-4.084H70.624a2.042,2.042,0,0,0-2.042,2.042V96.2A2.042,2.042,0,0,0,70.624,98.242Z" transform="translate(-49.907 -49.906)" fill="#fff"/>
      <path id="Path_120" data-name="Path 120" d="M346.87,335.316a2.042,2.042,0,0,0-2.042,2.042v23.309H315.591a2.042,2.042,0,0,0,0,4.084H346.87a2.042,2.042,0,0,0,2.042-2.042V337.358A2.042,2.042,0,0,0,346.87,335.316Z" transform="translate(-228.171 -244.01)" fill="#fff"/>
    </g>
  </g>
</svg>
