<svg id="instagram_4_" data-name="instagram(4)" xmlns="http://www.w3.org/2000/svg" width="70" height="70" viewBox="0 0 70 70">
  <path id="Path_291" data-name="Path 291" d="M220.4,213.7a6.7,6.7,0,1,1-6.7-6.7A6.7,6.7,0,0,1,220.4,213.7Zm0,0" transform="translate(-178.699 -178.699)" fill="#e3b344"/>
  <path id="Path_292" data-name="Path 292" d="M167.629,140.112a6.655,6.655,0,0,0-3.814-3.814,11.119,11.119,0,0,0-3.731-.692c-2.12-.1-2.755-.117-8.121-.117s-6,.02-8.121.117a11.127,11.127,0,0,0-3.731.692,6.658,6.658,0,0,0-3.815,3.814,11.123,11.123,0,0,0-.692,3.732c-.1,2.119-.117,2.755-.117,8.121s.021,6,.117,8.121a11.12,11.12,0,0,0,.692,3.731,6.655,6.655,0,0,0,3.814,3.814,11.105,11.105,0,0,0,3.732.692c2.119.1,2.754.117,8.121.117s6-.02,8.121-.117a11.106,11.106,0,0,0,3.732-.692,6.655,6.655,0,0,0,3.814-3.814,11.13,11.13,0,0,0,.692-3.731c.1-2.12.117-2.755.117-8.121s-.02-6-.117-8.121A11.106,11.106,0,0,0,167.629,140.112Zm-15.667,22.173a10.32,10.32,0,1,1,10.32-10.32A10.32,10.32,0,0,1,151.961,162.285Zm10.728-18.637a2.412,2.412,0,1,1,2.412-2.412A2.412,2.412,0,0,1,162.69,143.648Zm0,0" transform="translate(-116.961 -116.965)" fill="#e3b344"/>
  <path id="Path_293" data-name="Path 293" d="M35,0A35,35,0,1,0,70,35,35,35,0,0,0,35,0ZM54.976,43.286a14.745,14.745,0,0,1-.934,4.879,10.276,10.276,0,0,1-5.878,5.878,14.755,14.755,0,0,1-4.878.934c-2.143.1-2.828.121-8.286.121s-6.143-.023-8.286-.121a14.755,14.755,0,0,1-4.878-.934,10.276,10.276,0,0,1-5.878-5.878,14.742,14.742,0,0,1-.934-4.878c-.1-2.144-.122-2.828-.122-8.286s.023-6.143.121-8.286a14.747,14.747,0,0,1,.934-4.879,10.283,10.283,0,0,1,5.878-5.878,14.759,14.759,0,0,1,4.879-.934c2.143-.1,2.828-.121,8.286-.121s6.143.023,8.286.122a14.762,14.762,0,0,1,4.879.933,10.279,10.279,0,0,1,5.878,5.878,14.744,14.744,0,0,1,.935,4.879c.1,2.143.121,2.828.121,8.286S55.075,41.143,54.976,43.286Zm0,0" fill="#e3b344"/>
</svg>
