<svg xmlns="http://www.w3.org/2000/svg" width="112.23" height="173.641" viewBox="0 0 112.23 173.641">
  <g id="Group_10" data-name="Group 10" transform="translate(-349.012 -217.895)">
    <path id="Path_8" data-name="Path 8" d="M383.818,428.822h-4.334a1.12,1.12,0,0,1-1.077-1.581,1.134,1.134,0,0,1,.2-.275l5.215-5.414,0-27.239q-1.527-.14-3.093-.14a34.168,34.168,0,0,0-3.848.217,32.933,32.933,0,0,0-11.7,3.6,29.8,29.8,0,0,0-15.913,22.173,28.21,28.21,0,0,0-.252,3.767V491.7q1.526.14,3.092.14a32.93,32.93,0,0,0,19.314-6.154,31,31,0,0,0,5.455-5.021,28.514,28.514,0,0,0,6.941-18.562V428.835h0Z" transform="translate(0 -100.359)" fill="#fff"/>
    <path id="Path_9" data-name="Path 9" d="M463.187,427.01l.008-.008,0,0,.006-.006,4.955-5.364V394.452q-1.527-.139-3.092-.14a34.165,34.165,0,0,0-3.8.211,33.222,33.222,0,0,0-7.381,1.692,32.528,32.528,0,0,0-4.232,1.843,31.9,31.9,0,0,0-3.9,2.409,31.038,31.038,0,0,0-5.375,4.927,29.008,29.008,0,0,0-6,11.147h0a27.914,27.914,0,0,0-.762,3.7c-.066.474-.123.908-.163,1.389l5.051,5.3a1.084,1.084,0,0,1,.189.2l-.1-.1a.989.989,0,0,1,.076.091h0v0a1.079,1.079,0,0,1,.22.651,1.115,1.115,0,0,1-.6.976l-.041.022-.038.018-.04.018-.024.009-.049.018-.056.018a1.169,1.169,0,0,1-.169.037l-.063.008-.058,0c-.022,0-.045,0-.068,0h-4.339v.012h.006v62.921q1.526.139,3.092.14a33.922,33.922,0,0,0,3.927-.226,32.688,32.688,0,0,0,15.43-5.96,31,31,0,0,0,5.459-5.044,28.508,28.508,0,0,0,6.895-18.527v-33.3h-4.043a1.145,1.145,0,0,1-.928-1.9v0" transform="translate(-45.63 -100.438)" fill="#fff"/>
    <path id="Path_10" data-name="Path 10" d="M552.516,394.452v67.767c0,15.171-12.1,27.691-27.737,29.526a34.055,34.055,0,0,1-3.973.231q-1.565,0-3.093-.14V428.914h4.529a1.169,1.169,0,0,0,1.2-1.13,1.07,1.07,0,0,0-.146-.54,1.094,1.094,0,0,0-.074-.111l0,0c-.222-.278-5.157-5.195-5.4-5.5.039-.435.09-.959.15-1.389a27.916,27.916,0,0,1,.707-3.495,28.991,28.991,0,0,1,6.1-11.4,30.969,30.969,0,0,1,5.288-4.845,32.268,32.268,0,0,1,8.384-4.356,33.5,33.5,0,0,1,10.972-1.829q1.564,0,3.092.14" transform="translate(-91.274 -100.438)" fill="#fff"/>
    <path id="Path_11" data-name="Path 11" d="M518.928,298.838v20.486a6.6,6.6,0,0,1-6.775,6.081H490.616V305.2a6.583,6.583,0,0,1,6.782-6.364Z" transform="translate(-76.613 -46.083)" fill="#fff"/>
    <path id="Path_12" data-name="Path 12" d="M438.022,298.838v20.486a6.6,6.6,0,0,1-6.775,6.081H409.71V305.2a6.583,6.583,0,0,1,6.782-6.364Z" transform="translate(-32.84 -46.083)" fill="#fff"/>
    <path id="Path_13" data-name="Path 13" d="M478.122,217.9v20.472a6.6,6.6,0,0,1-6.775,6.1H449.81v-20.2a6.582,6.582,0,0,1,6.782-6.364Z" transform="translate(-54.536 0)" fill="#fff"/>
  </g>
</svg>
