<svg xmlns="http://www.w3.org/2000/svg" width="395.2" height="813.42" viewBox="0 0 395.2 813.42">
  <g id="XMLID_353_" transform="translate(-63 -55)">
    <path id="XMLID_359_" d="M403.893,74.014H371.539c-6.925,0-9.423-.342-9.877,8.444-.454,9.129-6.7,14.835-15.1,17.459a30.2,30.2,0,0,1-9.082,1.369H187.968a30.282,30.282,0,0,1-9.082-1.483c-8.4-2.625-14.758-8.33-15.1-17.459-.454-8.787-2.952-8.444-9.877-8.444h-32.7C101.348,74.014,85,89.306,85,109.161V809.018a36.482,36.482,0,0,0,36.215,36.4H403.893c19.867,0,35.306-16.432,35.306-36.4V109.161C439.2,89.306,423.647,74.014,403.893,74.014Z" transform="translate(0 0)" fill="none"/>
    <path id="XMLID_354_" d="M458.2,113.458A58.062,58.062,0,0,0,399.984,55H121.552A58.419,58.419,0,0,0,63,113.458V808.83c0,32.627,26.309,59.59,58.552,59.59H399.984c32.243,0,58.216-26.963,58.216-59.59ZM302.695,76.638a4.985,4.985,0,1,1-4.926,4.985A5,5,0,0,1,302.695,76.638Zm-61.687,3.285H284.67c1.9,0,3.359,1.133,3.359,2.832s-1.455,2.832-3.359,2.832H241.008c-1.9,0-3.359-1.133-3.359-2.832S239.1,79.924,241.008,79.924Zm195.921,726.3c0,19.826-15.338,36.139-34.818,36.139H123.344c-19.592,0-35.714-16.314-35.714-36.139V111.418c0-19.712,16.121-34.893,35.714-34.893h32.243c6.829,0,9.292-.453,9.74,8.27.448,9.063,6.605,14.954,14.89,17.56a29.6,29.6,0,0,0,8.956,1.359h147.22a29.78,29.78,0,0,0,8.956-1.586c8.285-2.606,14.554-8.044,14.89-17.107.448-8.723,2.911-8.5,9.74-8.5h31.907c19.592,0,34.818,15.181,34.818,34.893V806.224Z" transform="translate(0)"/>
  </g>
</svg>
