<svg xmlns="http://www.w3.org/2000/svg" width="139.678" height="140.416" viewBox="0 0 139.678 140.416">
  <g id="sketchbook" transform="translate(-0.779)">
    <g id="Group_113" data-name="Group 113" transform="translate(0.779)">
      <path id="Path_121" data-name="Path 121" d="M135.289,112.3l-6.094,1.524L120.227,94.1l-2.8-25.226,4.149.593a5.608,5.608,0,0,0,.821.059,5.763,5.763,0,0,0,.809-11.468l-5.177-.74V11.274A11.287,11.287,0,0,0,106.752,0h-94.7A11.274,11.274,0,0,0,9.8,22.32V139.8H99.9l.178.62,4.336-1.24-3.869-13.542,1.263-.316L131.093,118l1.238-.309,3.849,11.549,4.277-1.427Zm-17.4-50.448,4.674.668a1.225,1.225,0,0,1,.886.579,1.243,1.243,0,0,1,.124,1.055,1.28,1.28,0,0,1-1.364.846l-4.74-.677ZM106.752,4.509a6.773,6.773,0,0,1,6.764,6.765V51.5l-4.51-2.631V18.038h-2.255a6.764,6.764,0,1,1,0-13.529ZM83.717,59.5,72.859,57.947l-1-1.991a7.635,7.635,0,0,0-.424-.742l10.7,1.529v0l29.571,4.219,1.714.246-.42,2.471-6.987-1Zm4.44,7.768-4.164,4.164-7.028-5.271-1.653-3.308,11.24,1.605ZM63.236,49.708l-7.26,2.421c-.352.05-.708.088-1.055.149-.007-.14-.027-.277-.027-.42a20.193,20.193,0,0,1,4.5-12.721,20.153,20.153,0,0,1,4,8.307c-.007.023-.02.043-.025.065A6.758,6.758,0,0,0,63.236,49.708ZM57.889,60.184l.349,2.805A19.952,19.952,0,0,1,55.5,56.75c.314-.061.636-.092.954-.14l1.5,1.5A7.313,7.313,0,0,0,57.889,60.184ZM56.2,67.765a20.155,20.155,0,0,1-16.478,4A20.129,20.129,0,0,1,51.2,58.1,24.487,24.487,0,0,0,56.2,67.765Zm-5.718-14.25A24.616,24.616,0,0,0,35.412,70.4a20.277,20.277,0,1,1,20.77-34.448,24.677,24.677,0,0,0-5.8,15.907C50.383,52.416,50.442,52.964,50.478,53.514ZM39.13,76.233a24.471,24.471,0,0,0,20.121-5.156l.266,2.124L75.4,89.075A20.253,20.253,0,0,1,39.11,76.662C39.11,76.517,39.128,76.378,39.13,76.233ZM62.622,35.955a20.144,20.144,0,0,1,26.744,1.461L86.683,35.85,67.657,42.768a6.825,6.825,0,0,0-.816.417A24.674,24.674,0,0,0,62.622,35.955Zm5.133,12.653a2.263,2.263,0,0,1,1.45-1.6l17.039-6.2L111.4,55.489l.1.891-11.208-1.6L84.965,52.59l-1.833-3.213L73.6,50.966,67.89,50.15A2.3,2.3,0,0,1,67.754,48.607ZM5.288,11.274A6.773,6.773,0,0,1,12.053,4.51H97.792a11.046,11.046,0,0,0,0,13.529H12.053A6.773,6.773,0,0,1,5.288,11.274ZM94.924,122.39l3.687,12.895h-84.3V22.548H104.5v23.7l-6.377-3.72A24.744,24.744,0,0,0,59.4,32.741,24.788,24.788,0,1,0,34.679,74.969c-.036.562-.079,1.123-.079,1.693A24.771,24.771,0,0,0,78.615,92.29l1.867,1.867,15.31,13.123,4.584,13.747Zm20.182-5.047-10.345,2.586-5.087-15.262L83.544,90.851,63.8,71.106,62.363,59.624a2.885,2.885,0,0,1,.083-1.116l.106-.275a2.931,2.931,0,0,1,1.053-1.35,3.065,3.065,0,0,1,3.817.5,2.816,2.816,0,0,1,.4.589l2.054,4.106,3.524,7.05,11.01,8.257,9.364-9.364L92.2,65.264l20.606,2.945,2.972,26.739,8.963,19.986Z" transform="translate(-0.779)" fill="#fff"/>
    </g>
  </g>
</svg>
