<svg xmlns="http://www.w3.org/2000/svg" width="70" height="70" viewBox="0 0 70 70">
  <path id="snapchat_3_" data-name="snapchat(3)" d="M35,0A35,35,0,1,0,70,35,35,35,0,0,0,35,0ZM55.961,46.3c-.252.587-1.385,1.422-5.349,2.034-.325.05-.45.472-.644,1.357-.07.322-.142.639-.239.971a.529.529,0,0,1-.567.424h-.049a4.971,4.971,0,0,1-.887-.112,11.877,11.877,0,0,0-2.381-.252,10.579,10.579,0,0,0-1.719.144,8.237,8.237,0,0,0-3.268,1.667c-1.554,1.1-3.157,2.233-5.657,2.233-.109,0-.215,0-.323-.009-.068.006-.139.009-.21.009-2.5,0-4.1-1.133-5.654-2.231a8.258,8.258,0,0,0-3.273-1.669,10.564,10.564,0,0,0-1.718-.144,11.774,11.774,0,0,0-2.382.269,5.212,5.212,0,0,1-.888.128.558.558,0,0,1-.616-.441c-.1-.337-.17-.662-.239-.978-.177-.811-.3-1.31-.642-1.362-3.963-.612-5.1-1.447-5.351-2.04a.762.762,0,0,1-.061-.253.446.446,0,0,1,.373-.466c6.092-1,8.824-7.231,8.938-7.495,0-.006.006-.014.01-.021a2.325,2.325,0,0,0,.218-1.95c-.418-.985-1.782-1.418-2.685-1.7-.221-.07-.43-.136-.6-.2-1.8-.712-1.951-1.442-1.88-1.815a1.7,1.7,0,0,1,1.655-1.078,1.157,1.157,0,0,1,.492.1,5.257,5.257,0,0,0,2.171.572,1.789,1.789,0,0,0,1.3-.414c-.023-.412-.05-.843-.078-1.288-.182-2.88-.407-6.459.505-8.5a11.022,11.022,0,0,1,10.233-6.6l.75-.007h.1a11.04,11.04,0,0,1,10.251,6.6c.912,2.044.686,5.626.5,8.5l-.008.126c-.025.4-.05.79-.07,1.163a1.736,1.736,0,0,0,1.182.411h0a5.446,5.446,0,0,0,2.047-.568,1.531,1.531,0,0,1,.635-.126,1.952,1.952,0,0,1,.731.139l.014.006a1.343,1.343,0,0,1,1.021,1.094c.008.422-.315,1.056-1.894,1.681-.164.065-.373.131-.6.2-.9.286-2.267.72-2.685,1.7a2.32,2.32,0,0,0,.218,1.949l.01.022c.113.264,2.842,6.49,8.938,7.494a.447.447,0,0,1,.373.465.748.748,0,0,1-.062.255Zm0,0" fill="#e3b344"/>
</svg>
