<svg xmlns="http://www.w3.org/2000/svg" width="70" height="70" viewBox="0 0 70 70">
  <g id="Group_123" data-name="Group 123" transform="translate(-1071 -7344)">
    <circle id="Ellipse_24" data-name="Ellipse 24" cx="35" cy="35" r="35" transform="translate(1071 7344)" fill="#e3b344"/>
    <g id="Group_121" data-name="Group 121" transform="translate(1086.661 7365.23)">
      <path id="Path_275" data-name="Path 275" d="M65.88,37.951a16.692,16.692,0,0,1-4.805,1.316,8.389,8.389,0,0,0,3.679-4.628,16.748,16.748,0,0,1-5.313,2.03A8.373,8.373,0,0,0,45.185,44.3a23.748,23.748,0,0,1-17.244-8.742,8.375,8.375,0,0,0,2.589,11.17,8.307,8.307,0,0,1-3.789-1.048c0,.036,0,.071,0,.106a8.371,8.371,0,0,0,6.711,8.2,8.4,8.4,0,0,1-3.778.145,8.375,8.375,0,0,0,7.815,5.81A16.888,16.888,0,0,1,25.1,63.408a23.664,23.664,0,0,0,12.823,3.759c15.388,0,23.8-12.748,23.8-23.8,0-.362-.008-.724-.024-1.082a16.965,16.965,0,0,0,4.175-4.33Z" transform="translate(-25.103 -34.028)" fill="#373737"/>
    </g>
  </g>
</svg>
